# xmcd
#
# Track frame offsets:
#	150
#	9195
#	19643
#	31216
#	45474
#	56709
#	68844
#	77402
#	90137
#	102295
#	113275
#	121225
#
# Disc length: 1772 seconds
#
# Revision: 1
# Processed by: cddbd v1.5.2PL0 Copyright (c) Steve Scherf et al.
# Submitted via: audiograbber 1.83.01
#
DISCID=7606ea0c
DTITLE=Anita Bryant - Country's Best
DYEAR=1963
DGENRE=Country
TTITLE0=Bonaparte's Retreat
TTITLE1=Send Me The Pillow You Dream On
TTITLE2=Pride
TTITLE3=I Can't Stop Loving You
TTITLE4=A Wound Time Can't Erase
TTITLE5=The End Of The World
TTITLE6=Hey, Good Lookin'
TTITLE7=I Fall To Pieces
TTITLE8=Walk On By
TTITLE9=You're The Only Star ( In My Blue Heaven )
TTITLE10=Walking The Floor Over You
TTITLE11=I Can't Help It ( If I'm Still In Love With You )
EXTD=
EXTT0=
EXTT1=
EXTT2=
EXTT3=
EXTT4=
EXTT5=
EXTT6=
EXTT7=
EXTT8=
EXTT9=
EXTT10=
EXTT11=
PLAYORDER=
